<?xml version="1.0" encoding="UTF-8"?>
<svg width="40px" height="40px" viewBox="0 0 40 40" version="1.1" xmlns="http://www.w3.org/2000/svg" xmlns:xlink="http://www.w3.org/1999/xlink">
    <!-- Generator: Sketch 56.2 (81672) - https://sketch.com -->
    <title>Group 19</title>
    <desc>Created with Sketch.</desc>
    <defs>
        <linearGradient x1="0%" y1="100%" x2="100%" y2="0%" id="linearGradient-1">
            <stop stop-color="#FD6D58" offset="0%"></stop>
            <stop stop-color="#F88C23" offset="100%"></stop>
        </linearGradient>
    </defs>
    <g id="Page-1" stroke="none" stroke-width="1" fill="none" fill-rule="evenodd">
        <g id="pojedinacni_posao" transform="translate(-390.000000, -850.000000)">
            <g id="Group-19" transform="translate(390.000000, 850.000000)">
                <circle id="Oval-2" fill="url(#linearGradient-1)" fill-rule="nonzero" cx="20" cy="20" r="20"></circle>
                <g id="Group" transform="translate(6.000000, 12.000000)" fill="#FFFFFF">
                    <path d="M27.5821145,6.78282358 C25.8657399,4.54505824 21.463999,0 14.0125397,0 C6.58967518,0 2.15357448,4.55594275 0.42267195,6.79148676 C-0.133080126,7.51075261 -0.142534829,8.49924336 0.404684954,9.22606173 C2.08785276,11.4671591 6.43102064,16 14.0125397,16 C21.5013566,16 25.8804985,11.4613836 27.5878796,9.22050841 C28.1392502,8.49702203 28.1374054,7.50653209 27.5821145,6.78282358 M14.0012402,13.4936762 C10.8512098,13.4936762 8.29797866,11.0337781 8.29797866,7.9996668 C8.29797866,4.96644407 10.8512098,2.50654597 14.0012402,2.50654597 C17.1512707,2.50654597 19.7045018,4.96644407 19.7045018,7.9996668 C19.7047324,11.0337781 17.1512707,13.4936762 14.0012402,13.4936762" id="Shape"></path>
                    <path d="M17.3793103,7.55625473 C17.3793103,9.27460234 16.0832505,10.6666667 14.4821077,10.6666667 C12.8818328,10.6666667 11.5862069,9.27460234 11.5862069,7.55625473 C11.5862069,5.83650877 12.8818328,4.44444444 14.4821077,4.44444444 C16.0832505,4.44444444 17.3793103,5.83650877 17.3793103,7.55625473" id="Shape"></path>
                </g>
            </g>
        </g>
    </g>
</svg>