<?xml version="1.0" encoding="UTF-8"?>
<svg width="40px" height="40px" viewBox="0 0 40 40" version="1.1" xmlns="http://www.w3.org/2000/svg" xmlns:xlink="http://www.w3.org/1999/xlink">
    <!-- Generator: Sketch 56.2 (81672) - https://sketch.com -->
    <title>Group 20</title>
    <desc>Created with Sketch.</desc>
    <defs>
        <linearGradient x1="0%" y1="100%" x2="100%" y2="0%" id="linearGradient-1">
            <stop stop-color="#FD6D58" offset="0%"></stop>
            <stop stop-color="#F88C23" offset="100%"></stop>
        </linearGradient>
    </defs>
    <g id="Page-1" stroke="none" stroke-width="1" fill="none" fill-rule="evenodd">
        <g id="pojedinacni_posao" transform="translate(-390.000000, -1540.000000)" fill-rule="nonzero">
            <g id="Group-20" transform="translate(390.000000, 1540.000000)">
                <circle id="Oval-2" fill="url(#linearGradient-1)" cx="20" cy="20" r="20"></circle>
                <path d="M16.797595,18.3245793 C16.0388436,17.4415881 15.5789474,16.2848244 15.5789474,15.0185187 C15.5789474,12.2468673 17.7821777,10 20.5,10 C21.8051443,10 23.0568333,10.5287353 23.9797097,11.4698901 C24.9025861,12.4110449 25.4210526,13.6875248 25.4210526,15.0185187 C25.4210526,16.2855493 24.9606297,17.4429124 24.2011017,18.3260954 C25.0494089,18.7347108 25.8314291,19.2847027 26.5104076,19.9609091 C28.1044669,21.54846 29,23.701641 29,25.946777 C29,26.0192319 12,26.0162343 12,25.946777 C12,22.593246 13.958011,19.6951657 16.797595,18.3245793 Z" id="Combined-Shape" fill="#FFFFFF"></path>
            </g>
        </g>
    </g>
</svg>