<?xml version="1.0" encoding="UTF-8"?>
<svg width="40px" height="40px" viewBox="0 0 40 40" version="1.1" xmlns="http://www.w3.org/2000/svg" xmlns:xlink="http://www.w3.org/1999/xlink">
    <!-- Generator: Sketch 56.2 (81672) - https://sketch.com -->
    <title>Group 21</title>
    <desc>Created with Sketch.</desc>
    <defs>
        <linearGradient x1="0%" y1="100%" x2="100%" y2="0%" id="linearGradient-1">
            <stop stop-color="#FD6D58" offset="0%"></stop>
            <stop stop-color="#F88C23" offset="100%"></stop>
        </linearGradient>
    </defs>
    <g id="Page-1" stroke="none" stroke-width="1" fill="none" fill-rule="evenodd">
        <g id="pojedinacni_posao" transform="translate(-390.000000, -2175.000000)" fill-rule="nonzero">
            <g id="Group-21" transform="translate(390.000000, 2175.000000)">
                <circle id="Oval-2" fill="url(#linearGradient-1)" cx="20" cy="20" r="20"></circle>
                <g id="noun_Info_817970" transform="translate(9.000000, 8.000000)" fill="#FFFFFF">
                    <path d="M10.5,0 C16.1933333,0 20.8366667,4.52666667 21,10.22 L21,21 L10.4066667,21 C4.64333333,20.9533333 0,16.2633333 0,10.5 C0,4.69 4.69,0 10.5,0 Z M12,5.21621622 C12,5.0472973 11.9662162,4.87837838 11.8986486,4.74324324 C11.8310811,4.60810811 11.7635135,4.47297297 11.6283784,4.37162162 C11.4932432,4.27027027 11.3581081,4.16891892 11.222973,4.10135135 C11.0540541,4.03378378 10.9189189,4 10.75,4 C10.5810811,4 10.4121622,4.03378378 10.277027,4.10135135 C10.1081081,4.16891892 9.97297297,4.27027027 9.87162162,4.37162162 C9.77027027,4.50675676 9.66891892,4.64189189 9.60135135,4.77702703 C9.53378378,4.91216216 9.5,5.0472973 9.5,5.21621622 C9.5,5.41891892 9.53378378,5.55405405 9.60135135,5.72297297 C9.66891892,5.89189189 9.77027027,6.02702703 9.87162162,6.12837838 C10.0067568,6.22972973 10.1418919,6.33108108 10.277027,6.39864865 C10.4459459,6.46621622 10.5810811,6.5 10.75,6.5 C11.0878378,6.5 11.3918919,6.36486486 11.6283784,6.12837838 C11.8648649,5.85810811 12,5.55405405 12,5.21621622 Z M12,14 L12,9 C12,8.69444444 11.8863636,8.47222222 11.6590909,8.27777778 C11.4318182,8.08333333 11.1287879,8 10.75,8 C10.3712121,8 10.0681818,8.08333333 9.84090909,8.27777778 C9.61363636,8.44444444 9.5,8.69444444 9.5,9 L9.5,14 C9.5,14.3055556 9.61363636,14.5277778 9.84090909,14.7222222 C10.0681818,14.9166667 10.3712121,15 10.75,15 C11.1287879,15 11.4318182,14.9166667 11.6590909,14.7222222 C11.8863636,14.5555556 12,14.3055556 12,14 Z" id="Combined-Shape"></path>
                </g>
            </g>
        </g>
    </g>
</svg>