<?xml version="1.0" encoding="UTF-8"?>
<svg width="18px" height="18px" viewBox="0 0 18 18" version="1.1" xmlns="http://www.w3.org/2000/svg" xmlns:xlink="http://www.w3.org/1999/xlink">
    <!-- Generator: Sketch 56.2 (81672) - https://sketch.com -->
    <title>noun_categories_1249561</title>
    <desc>Created with Sketch.</desc>
    <g id="Page-1" stroke="none" stroke-width="1" fill="none" fill-rule="evenodd">
        <g id="pojedinacni_posao_hzz" transform="translate(-389.000000, -670.000000)" fill="#2F9DE0" fill-rule="nonzero">
            <g id="noun_categories_1249561" transform="translate(398.000000, 679.000000) scale(-1, -1) translate(-398.000000, -679.000000) translate(389.000000, 670.000000)">
                <g id="Group">
                    <path d="M6.40714286,0 L1.73571429,0 C0.771428571,0 0,0.771428571 0,1.73571429 L0,6.40714286 C0,7.37142857 0.771428571,8.14285714 1.73571429,8.14285714 L6.40714286,8.14285714 C7.37142857,8.14285714 8.14285714,7.37142857 8.14285714,6.40714286 L8.14285714,1.73571429 C8.14285714,0.771428571 7.37142857,0 6.40714286,0 L6.40714286,0 Z" id="Shape"></path>
                    <path d="M6.40714286,9.85714286 L1.73571429,9.85714286 C0.771428571,9.85714286 0,10.6285714 0,11.5928571 L0,16.2642857 C0,17.2285714 0.771428571,18 1.73571429,18 L6.40714286,18 C7.37142857,18 8.14285714,17.2285714 8.14285714,16.2642857 L8.14285714,11.5928571 C8.14285714,10.6285714 7.37142857,9.85714286 6.40714286,9.85714286 L6.40714286,9.85714286 Z" id="Shape"></path>
                    <path d="M16.2642857,0 L11.5928571,0 C10.6285714,0 9.85714286,0.771428571 9.85714286,1.73571429 L9.85714286,6.40714286 C9.85714286,7.37142857 10.6285714,8.14285714 11.5928571,8.14285714 L16.2642857,8.14285714 C17.2285714,8.14285714 18,7.37142857 18,6.40714286 L18,1.73571429 C18,0.771428571 17.2285714,0 16.2642857,0 L16.2642857,0 Z" id="Shape"></path>
                    <path d="M13.9285714,9.85714286 C11.6785714,9.85714286 9.85714286,11.6785714 9.85714286,13.9285714 C9.85714286,16.1785714 11.6785714,18 13.9285714,18 C16.1785714,18 18,16.1785714 18,13.9285714 C18,11.6785714 16.1785714,9.85714286 13.9285714,9.85714286 L13.9285714,9.85714286 Z" id="Shape"></path>
                </g>
            </g>
        </g>
    </g>
</svg>