<?xml version="1.0" encoding="UTF-8"?>
<svg width="20px" height="16px" viewBox="0 0 20 16" version="1.1" xmlns="http://www.w3.org/2000/svg" xmlns:xlink="http://www.w3.org/1999/xlink">
    <!-- Generator: Sketch 56.3 (81716) - https://sketch.com -->
    <title>“</title>
    <desc>Created with Sketch.</desc>
    <g id="Page-1" stroke="none" stroke-width="1" fill="none" fill-rule="evenodd">
        <g id="pojedinacni_posao" transform="translate(-387.000000, -744.000000)" fill="#A1ACB5">
            <path d="M407,756.307692 C407,757.333338 406.59783,758.205125 405.793478,758.923077 C404.989126,759.641029 403.978267,760 402.76087,760 C401.5,760 400.391309,759.569235 399.434783,758.707692 C398.478256,757.84615 398,756.533342 398,754.769231 C398,752.964094 398.282606,751.405135 398.847826,750.092308 C399.413046,748.779481 400.119561,747.682056 400.967391,746.8 C401.815222,745.917944 402.749995,745.251284 403.771739,744.8 C404.793483,744.348716 405.760865,744.082052 406.673913,744 L406.673913,746.892308 C405.239123,747.220514 404.076091,747.979481 403.184783,749.169231 C402.293474,750.35898 401.826087,751.589737 401.782609,752.861538 C401.869566,752.779487 402.021738,752.707693 402.23913,752.646154 C402.456523,752.584615 402.739129,752.553846 403.086957,752.553846 C404.173918,752.553846 405.097822,752.882048 405.858696,753.538462 C406.619569,754.194875 407,755.117943 407,756.307692 Z M396,756.307692 C396,757.333338 395.59783,758.205125 394.793478,758.923077 C393.989126,759.641029 392.978267,760 391.76087,760 C390.5,760 389.391309,759.569235 388.434783,758.707692 C387.478256,757.84615 387,756.533342 387,754.769231 C387,752.964094 387.282606,751.405135 387.847826,750.092308 C388.413046,748.779481 389.119561,747.682056 389.967391,746.8 C390.815222,745.917944 391.749995,745.251284 392.771739,744.8 C393.793483,744.348716 394.760865,744.082052 395.673913,744 L395.673913,746.892308 C394.239123,747.220514 393.076091,747.979481 392.184783,749.169231 C391.293474,750.35898 390.826087,751.589737 390.782609,752.861538 C390.869566,752.779487 391.021738,752.707693 391.23913,752.646154 C391.456523,752.584615 391.739129,752.553846 392.086957,752.553846 C393.173918,752.553846 394.097822,752.882048 394.858696,753.538462 C395.619569,754.194875 396,755.117943 396,756.307692 Z" id="“"></path>
        </g>
    </g>
</svg>