<?xml version="1.0" encoding="UTF-8"?>
<svg width="16px" height="18px" viewBox="0 0 16 18" version="1.1" xmlns="http://www.w3.org/2000/svg" xmlns:xlink="http://www.w3.org/1999/xlink">
    <!-- Generator: Sketch 56.2 (81672) - https://sketch.com -->
    <title>noun_company_225592</title>
    <desc>Created with Sketch.</desc>
    <g id="Page-1" stroke="none" stroke-width="1" fill="none" fill-rule="evenodd">
        <g id="rezulati_pretrage" transform="translate(-884.000000, -656.000000)" fill="#2F9DE0" fill-rule="nonzero">
            <g id="noun_company_225592" transform="translate(884.000000, 656.000000)">
                <path d="M0,1.90588235 C-1.28905068e-16,0.853292594 0.853292594,1.93357602e-16 1.90588235,0 L14.0941176,0 C15.1467074,6.94820818e-16 16,0.853292594 16,1.90588235 L16,18 L10.6666667,18 L10.6666667,15.2666667 C10.6666667,13.7939073 9.47275933,12.6 8,12.6 C6.52724067,12.6 5.33333333,13.7939073 5.33333333,15.2666667 L5.33333333,18 L0,18 L0,1.90588235 Z M2.76861572,4.89270368 C2.76861572,5.29508257 3.09480826,5.62127511 3.49718715,5.62127511 L12.0400443,5.62127511 C12.4424232,5.62127511 12.7686157,5.29508257 12.7686157,4.89270368 C12.7686157,4.49032479 12.4424232,4.16413225 12.0400443,4.16413225 L3.49718715,4.16413225 C3.09480826,4.16413225 2.76861572,4.49032479 2.76861572,4.89270368 Z M2.76861572,8.32127511 C2.76861572,8.723654 3.09480826,9.04984654 3.49718715,9.04984654 L12.0400443,9.04984654 C12.4424232,9.04984654 12.7686157,8.723654 12.7686157,8.32127511 C12.7686157,7.91889622 12.4424232,7.59270368 12.0400443,7.59270368 L3.49718715,7.59270368 C3.09480826,7.59270368 2.76861572,7.91889622 2.76861572,8.32127511 Z" id="Combined-Shape"></path>
            </g>
        </g>
    </g>
</svg>