<?xml version="1.0" encoding="UTF-8"?>
<svg width="19px" height="19px" viewBox="0 0 19 19" version="1.1" xmlns="http://www.w3.org/2000/svg" xmlns:xlink="http://www.w3.org/1999/xlink">
    <!-- Generator: Sketch 56.2 (81672) - https://sketch.com -->
    <title>noun_Time_424424</title>
    <desc>Created with Sketch.</desc>
    <g id="Page-1" stroke="none" stroke-width="1" fill="none" fill-rule="evenodd">
        <g id="rezulati_pretrage" transform="translate(-685.000000, -655.000000)" fill="#F99E42" fill-rule="nonzero">
            <g id="noun_Time_424424" transform="translate(685.000000, 655.000000)">
                <path d="M9.5,0 C4.253625,0 0,4.25303125 0,9.5 C0,14.7469688 4.253625,19 9.5,19 C14.746375,19 19,14.7469688 19,9.5 C19,4.25303125 14.746375,0 9.5,0 Z M12.0625,11.6875 L7.609375,11.6875 C7.4455,11.6875 7.3125,11.5545 7.3125,11.390625 L7.3125,4.5625 C7.3125,3.90666186 7.84416186,3.375 8.5,3.375 C9.15583814,3.375 9.6875,3.90666186 9.6875,4.5625 L9.6875,9.3125 L12.0625,9.3125 C12.7183381,9.3125 13.25,9.84416186 13.25,10.5 C13.25,11.1558381 12.7183381,11.6875 12.0625,11.6875 Z" id="Shape"></path>
            </g>
        </g>
    </g>
</svg>